<svg width="216" height="138" viewBox="0 0 216 138" fill="none" xmlns="http://www.w3.org/2000/svg">
<path d="M215.889 124.285C196.079 124.285 177.097 124.257 158.116 124.285C154.399 124.285 152.884 121.484 150.969 119.168C132.073 96.1272 113.177 73.0291 94.253 49.9597C92.6807 48.073 91.3085 45.8718 89.3361 44.5282C86.8776 42.8702 83.6187 42.3842 81.1888 43.3561C80.5885 43.6134 80.074 43.8993 79.588 44.2995C77.787 45.8146 81.4175 48.2159 82.8183 49.9311C94.7961 64.6818 106.917 79.3468 119.123 93.8974C121.639 96.899 122.897 99.9578 122.811 103.903C122.668 110.706 122.64 117.539 122.725 124.371C122.754 126.744 122.811 129.145 122.84 131.518C122.925 135.434 121.525 137.035 117.551 137.006C103.229 136.892 88.9358 136.749 74.6139 137.063C69.1253 137.178 68.868 134.29 68.868 130.145C68.868 121.112 68.8966 112.079 68.8966 103.017C53.6027 84.4638 38.366 65.8825 23.1579 47.2439C21.071 44.6997 18.9556 42.7272 15.468 43.2418C13.7814 43.4991 11.4087 42.2413 10.5225 44.3853C9.83645 46.0433 11.7518 47.2439 12.7523 48.4732C24.0155 62.1948 35.1071 76.1451 46.7991 89.4951C52.1162 95.584 54.8605 101.759 54.1458 109.906C53.5169 117.196 53.8886 124.6 54.0601 131.946C54.1458 135.72 52.545 136.978 48.9431 136.978C34.4496 136.892 19.9276 136.806 5.40551 137.006C0.602949 137.092 0.174148 134.462 0.174148 130.831C0.202735 113.051 0.145562 95.2696 0.116975 77.4887C0.116975 54.1905 0.288495 30.8923 0.00262811 7.59419C-0.083132 1.61957 1.91794 -0.209979 7.77821 0.0187143C18.584 0.418928 29.4469 0.19024 40.2813 0.10448C43.5402 0.0758929 46.1416 0.876319 48.3427 3.50629C55.2035 11.825 62.0643 20.1438 68.9252 28.4625C68.9252 23.9172 68.9252 19.3433 68.9252 14.798C68.9252 0.104477 69.0109 0.10448 83.9046 0.10448C92.2805 0.10448 100.656 0.104474 109.061 0.0187143C112.034 -0.00987241 114.607 0.476108 116.694 2.99174C149.282 42.6129 181.957 82.1769 214.603 121.712C214.946 122.17 215.118 122.77 215.889 124.285Z" fill="white"/>
</svg>
